{"title":"Bajatey Raho 2013 SCamRip x264 MP3 [TMB] - Hindi","uid":8744313,"size":337107494,"categoryP":"video","categoryS":"movies","magnet":"?xt=urn:btih:7fbba0a2e77bc3b086b5debe9004c0df813ce805&amp;dn=Bajatey+Raho+2013+SCamRip+x264+MP3+%5BTMB%5D+-+Hindi&amp;tr=udp%3A%2F%2Ftracker.openbittorrent.com%3A80&amp;tr=udp%3A%2F%2Fopen.demonii.com%3A1337&amp;tr=udp%3A%2F%2Ftracker.coppersurfer.tk%3A6969&amp;tr=udp%3A%2F%2Fexodus.desync.com%3A6969","seeders":1,"leechers":0,"uploader":"SJonam","files":2,"time":1374880024,"description":" &lt;a href=&quot;http://desibbrg.org/images/04860107371484438516.jpg&quot; rel=&quot;nofollow&quot; target=&quot;_NEW&quot;&gt;http://desibbrg.org/images/04860107371484438516.jpg&lt;/a&gt; &lt;a href=&quot;\nhttp://desibbrg.org/images/57230105136200518510.png&quot; rel=&quot;nofollow&quot; target=&quot;_NEW&quot;&gt;\nhttp://desibbrg.org/images/57230105136200518510.png&lt;/a&gt; &lt;a href=&quot;\nhttp://desibbrg.org/images/98088834118030725264.png&quot; rel=&quot;nofollow&quot; target=&quot;_NEW&quot;&gt;\nhttp://desibbrg.org/images/98088834118030725264.png&lt;/a&gt; &lt;a href=&quot;\nhttp://desibbrg.org/images/35800213454397279576.png&quot; rel=&quot;nofollow&quot; target=&quot;_NEW&quot;&gt;\nhttp://desibbrg.org/images/35800213454397279576.png&lt;/a&gt; &lt;a href=&quot;\nhttp://desibbrg.org/images/98931411694844485870.png&quot; rel=&quot;nofollow&quot; target=&quot;_NEW&quot;&gt;\nhttp://desibbrg.org/images/98931411694844485870.png&lt;/a&gt;\n\nMedia Info -\nGeneral\nComplete name                  : Bajatey Raho 2013 SCamRip x264 MP3 [TMB].avi\nFormat                         : AVI\nFormat/Info                    : Audio Video Interleave\nFile size                      : 314 MiB\nDuration                       : 1h 33mn\nOverall bit rate               : 473 Kbps\nWriting application            : Lavf54.63.104\n\nVideo\nFormat                         : AVC\nFormat/Info                    : Advanced Video Codec\nFormat profile                 : &lt;a class=&quot;__cf_email__&quot; href=&quot;/cdn-cgi/l/email-protection&quot; data-cfemail=&quot;2d604c44436d611c031e&quot;&gt;[email&amp;#160;protected]&lt;/a&gt;&lt;script cf-hash='f9e31' type=&quot;text/javascript&quot;&gt;\n/* &lt;![CDATA[ */!function(){try{var t=&quot;currentScript&quot;in document?document.currentScript:function(){for(var t=document.getElementsByTagName(&quot;script&quot;),e=t.length;e--;)if(t[e].getAttribute(&quot;cf-hash&quot;))return t[e]}();if(t&amp;&amp;t.previousSibling){var e,r,n,i,c=t.previousSibling,a=c.getAttribute(&quot;data-cfemail&quot;);if(a){for(e=&quot;&quot;,r=parseInt(a.substr(0,2),16),n=2;a.length-n;n+=2)i=parseInt(a.substr(n,2),16)^r,e+=String.fromCharCode(i);e=document.createTextNode(e),c.parentNode.replaceChild(e,c)}}}catch(u){}}();/* ]]&gt; */&lt;/script&gt;\nFormat settings, CABAC         : Yes\nFormat settings, ReFrames      : 1 frame\nCodec ID                       : H264\nDuration                       : 1h 33mn\nBit rate                       : 203 Kbps\nWidth                          : 384 pixels\nHeight                         : 172 pixels\nDisplay aspect ratio           : 2.25:1\nFrame rate mode                : Variable\nFrame rate                     : 25.000 fps\nColor space                    : YUV\nChroma subsampling             : 4:2:0\nBit depth                      : 8 bits\nScan type                      : Progressive\nBits/(Pixel*Frame)             : 0.123\nStream size                    : 136 MiB (43%)\nWriting library                : x264 core 129\n\n\nAudio\nFormat                         : MPEG Audio\nFormat version                 : Version 1\nFormat profile                 : Layer 3\nMode                           : Joint stereo\nCodec ID                       : 55\nCodec ID/Hint                  : MP3\nDuration                       : 1h 33mn\nBit rate mode                  : Constant\nBit rate                       : 256 Kbps\nChannel(s)                     : 2 channels\nSampling rate                  : 48.0 KHz\nCompression mode               : Lossy\nStream size                    : 170 MiB (54%)\nAlignment                      : Aligned on interleaves\nInterleave, duration           : 24 ms (0.60 video frame)\n\nSample in Torrent\n\nRipper : Manojvb\n\n\nSeeding 24x7... Extreme Seeding...\n\n &lt;a href=&quot;\nhttp://desibbrg.org/images/48627592875446061657.gif&quot; rel=&quot;nofollow&quot; target=&quot;_NEW&quot;&gt;\nhttp://desibbrg.org/images/48627592875446061657.gif&lt;/a&gt;","torrent":{"xt":"urn:btih:7fbba0a2e77bc3b086b5debe9004c0df813ce805","amp;dn":"Bajatey+Raho+2013+SCamRip+x264+MP3+%5BTMB%5D+-+Hindi","amp;tr":["udp%3A%2F%2Ftracker.openbittorrent.com%3A80","udp%3A%2F%2Fopen.demonii.com%3A1337","udp%3A%2F%2Ftracker.coppersurfer.tk%3A6969","udp%3A%2F%2Fexodus.desync.com%3A6969"],"infoHash":"7fbba0a2e77bc3b086b5debe9004c0df813ce805","infoHashBuffer":{"type":"Buffer","data":[127,187,160,162,231,123,195,176,134,181,222,190,144,4,192,223,129,60,232,5]},"announce":[],"urlList":[]}}